<svg width="40" height="40" viewBox="0 0 40 40" fill="none" xmlns="http://www.w3.org/2000/svg">
<path d="M6.23058 21.3206H2.24812C1.87954 21.3206 1.52606 21.1808 1.26544 20.932C1.00482 20.6833 0.858398 20.3458 0.858398 19.994C0.858398 19.6422 1.00482 19.3048 1.26544 19.056C1.52606 18.8072 1.87954 18.6675 2.24812 18.6675H6.23058C6.59916 18.6675 6.95264 18.8072 7.21326 19.056C7.47389 19.3048 7.6203 19.6422 7.6203 19.994C7.6203 20.3458 7.47389 20.6833 7.21326 20.932C6.95264 21.1808 6.59916 21.3206 6.23058 21.3206ZM10.3659 11.7895C10.1835 11.7899 10.0027 11.7559 9.83414 11.6894C9.66552 11.6229 9.51236 11.5252 9.38346 11.4019L6.56892 8.71292C6.30836 8.4642 6.16198 8.12686 6.16198 7.77512C6.16198 7.60096 6.19792 7.4285 6.26774 7.26759C6.33756 7.10668 6.43991 6.96048 6.56892 6.83732C6.69794 6.71417 6.85111 6.61648 7.01968 6.54983C7.18825 6.48318 7.36892 6.44887 7.55138 6.44887C7.91987 6.44887 8.27327 6.5886 8.53384 6.83732L11.3484 9.52632C11.5428 9.71168 11.6753 9.94795 11.729 10.2052C11.7826 10.4625 11.7551 10.7291 11.6499 10.9715C11.5447 11.2138 11.3666 11.4209 11.138 11.5665C10.9094 11.7121 10.6407 11.7897 10.3659 11.7895ZM7.55138 33.5359C7.27739 33.5357 7.00959 33.4581 6.7817 33.3129C6.55382 33.1677 6.37603 32.9614 6.27072 32.7199C6.16542 32.4785 6.1373 32.2127 6.18992 31.956C6.24254 31.6993 6.37354 31.4633 6.56642 31.2775L9.38095 28.5885C9.50997 28.4654 9.66314 28.3677 9.83171 28.301C10.0003 28.2344 10.181 28.2001 10.3634 28.2001C10.5459 28.2001 10.7265 28.2344 10.8951 28.301C11.0637 28.3677 11.2168 28.4654 11.3459 28.5885C11.4749 28.7117 11.5772 28.8579 11.6471 29.0188C11.7169 29.1797 11.7528 29.3522 11.7528 29.5263C11.7528 29.7005 11.7169 29.8729 11.6471 30.0339C11.5772 30.1948 11.4749 30.341 11.3459 30.4641L8.53133 33.1507C8.40264 33.2744 8.24957 33.3725 8.08095 33.4395C7.91233 33.5064 7.73149 33.5408 7.54887 33.5407L7.55138 33.5359ZM31.5313 19.9952C31.5308 22.102 30.8759 24.1613 29.6494 25.9129C28.4229 27.6644 26.6799 29.0295 24.6407 29.8355C22.6015 30.6415 20.3577 30.8523 18.193 30.4411C16.0284 30.03 14.04 29.0154 12.4793 27.5257C10.9187 26.036 9.8558 24.138 9.4251 22.0717C8.99439 20.0055 9.21519 17.8637 10.0596 15.9172C10.904 13.9707 12.334 12.3068 14.169 11.1361C16.0039 9.96532 18.1613 9.34019 20.3684 9.33972C21.8342 9.3394 23.2858 9.61472 24.6401 10.1499C25.9944 10.6852 27.225 11.4698 28.2616 12.4591C29.2982 13.4484 30.1205 14.6229 30.6816 15.9155C31.2426 17.2082 31.5313 18.5936 31.5313 19.9928V19.9952ZM20.3509 7.83971C20.1683 7.83972 19.9876 7.80536 19.819 7.7386C19.6503 7.67184 19.4972 7.57401 19.3682 7.45068C19.2392 7.32736 19.137 7.18097 19.0674 7.01989C18.9978 6.85882 18.9621 6.68621 18.9624 6.51196V2.71531C18.9624 2.36381 19.1087 2.0267 19.3691 1.77814C19.6295 1.52959 19.9826 1.38995 20.3509 1.38995C20.7191 1.38995 21.0723 1.52959 21.3327 1.77814C21.5931 2.0267 21.7394 2.36381 21.7394 2.71531V6.51436C21.7397 6.68861 21.704 6.86121 21.6344 7.02228C21.5648 7.18336 21.4625 7.32975 21.3336 7.45307C21.2046 7.5764 21.0514 7.67424 20.8828 7.74099C20.7142 7.80775 20.5334 7.84211 20.3509 7.84211V7.83971ZM20.3509 38.5957C19.9826 38.5957 19.6295 38.4561 19.3691 38.2075C19.1087 37.959 18.9624 37.6218 18.9624 37.2703V33.4713C18.9624 33.1198 19.1087 32.7827 19.3691 32.5341C19.6295 32.2856 19.9826 32.1459 20.3509 32.1459C20.7191 32.1459 21.0723 32.2856 21.3327 32.5341C21.5931 32.7827 21.7394 33.1198 21.7394 33.4713V37.2703C21.7394 37.6218 21.5931 37.959 21.3327 38.2075C21.0723 38.4561 20.7191 38.5957 20.3509 38.5957ZM30.3358 11.7871C30.061 11.7873 29.7923 11.7097 29.5638 11.5641C29.3352 11.4185 29.157 11.2114 29.0518 10.9691C28.9466 10.7268 28.9191 10.4601 28.9728 10.2028C29.0265 9.94555 29.1589 9.70928 29.3534 9.52392L32.1679 6.83732C32.4282 6.5886 32.7812 6.44875 33.1495 6.44852C33.5177 6.4483 33.871 6.58772 34.1316 6.83613C34.3921 7.08453 34.5387 7.42156 34.5389 7.77308C34.5391 8.1246 34.3931 8.46181 34.1328 8.71053L31.3183 11.3971C31.1897 11.5209 31.0366 11.6191 30.868 11.6861C30.6994 11.753 30.5185 11.7873 30.3358 11.7871ZM33.1504 33.5335C32.968 33.5338 32.7873 33.4997 32.6187 33.4332C32.4501 33.3667 32.2969 33.2691 32.1679 33.1459L29.3534 30.4593C29.0928 30.2106 28.9464 29.8733 28.9464 29.5215C28.9464 29.1698 29.0928 28.8325 29.3534 28.5837C29.6139 28.335 29.9674 28.1953 30.3358 28.1953C30.7043 28.1953 31.0577 28.335 31.3183 28.5837L34.1328 31.2727C34.3273 31.4581 34.4597 31.6944 34.5134 31.9516C34.5671 32.2089 34.5396 32.4756 34.4344 32.7179C34.3292 32.9602 34.151 33.1673 33.9225 33.3129C33.6939 33.4585 33.4252 33.5361 33.1504 33.5359V33.5335ZM38.4536 21.3182H34.4712C34.1026 21.3182 33.7491 21.1784 33.4885 20.9296C33.2279 20.6809 33.0815 20.3435 33.0815 19.9916C33.0815 19.6398 33.2279 19.3024 33.4885 19.0536C33.7491 18.8048 34.1026 18.6651 34.4712 18.6651H38.4536C38.8222 18.6651 39.1757 18.8048 39.4363 19.0536C39.6969 19.3024 39.8434 19.6398 39.8434 19.9916C39.8434 20.3435 39.6969 20.6809 39.4363 20.9296C39.1757 21.1784 38.8222 21.3182 38.4536 21.3182Z" fill="#FFF700"/>
<path d="M6.23058 21.3206H2.24812C1.87954 21.3206 1.52606 21.1808 1.26544 20.932C1.00482 20.6833 0.858398 20.3458 0.858398 19.994C0.858398 19.6422 1.00482 19.3048 1.26544 19.056C1.52606 18.8072 1.87954 18.6675 2.24812 18.6675H6.23058C6.59916 18.6675 6.95264 18.8072 7.21326 19.056C7.47389 19.3048 7.6203 19.6422 7.6203 19.994C7.6203 20.3458 7.47389 20.6833 7.21326 20.932C6.95264 21.1808 6.59916 21.3206 6.23058 21.3206ZM10.3659 11.7895C10.1835 11.7899 10.0027 11.7559 9.83414 11.6894C9.66552 11.6229 9.51236 11.5252 9.38346 11.4019L6.56892 8.71292C6.30836 8.4642 6.16198 8.12686 6.16198 7.77512C6.16198 7.60096 6.19792 7.4285 6.26774 7.26759C6.33756 7.10668 6.43991 6.96048 6.56892 6.83732C6.69794 6.71417 6.85111 6.61648 7.01968 6.54983C7.18825 6.48318 7.36892 6.44887 7.55138 6.44887C7.91987 6.44887 8.27327 6.5886 8.53384 6.83732L11.3484 9.52632C11.5428 9.71168 11.6753 9.94795 11.729 10.2052C11.7826 10.4625 11.7551 10.7291 11.6499 10.9715C11.5447 11.2138 11.3666 11.4209 11.138 11.5665C10.9094 11.7121 10.6407 11.7897 10.3659 11.7895ZM7.55138 33.5359C7.27739 33.5357 7.00959 33.4581 6.7817 33.3129C6.55382 33.1677 6.37603 32.9614 6.27072 32.7199C6.16542 32.4785 6.1373 32.2127 6.18992 31.956C6.24254 31.6993 6.37354 31.4633 6.56642 31.2775L9.38095 28.5885C9.50997 28.4654 9.66314 28.3677 9.83171 28.301C10.0003 28.2344 10.181 28.2001 10.3634 28.2001C10.5459 28.2001 10.7265 28.2344 10.8951 28.301C11.0637 28.3677 11.2168 28.4654 11.3459 28.5885C11.4749 28.7117 11.5772 28.8579 11.6471 29.0188C11.7169 29.1797 11.7528 29.3522 11.7528 29.5263C11.7528 29.7005 11.7169 29.8729 11.6471 30.0339C11.5772 30.1948 11.4749 30.341 11.3459 30.4641L8.53133 33.1507C8.40264 33.2744 8.24957 33.3725 8.08095 33.4395C7.91233 33.5064 7.73149 33.5408 7.54887 33.5407L7.55138 33.5359ZM31.5313 19.9952C31.5308 22.102 30.8759 24.1613 29.6494 25.9129C28.4229 27.6644 26.6799 29.0295 24.6407 29.8355C22.6015 30.6415 20.3577 30.8523 18.193 30.4411C16.0284 30.03 14.04 29.0154 12.4793 27.5257C10.9187 26.036 9.8558 24.138 9.4251 22.0717C8.99439 20.0055 9.21519 17.8637 10.0596 15.9172C10.904 13.9707 12.334 12.3068 14.169 11.1361C16.0039 9.96532 18.1613 9.34019 20.3684 9.33972C21.8342 9.3394 23.2858 9.61472 24.6401 10.1499C25.9944 10.6852 27.225 11.4698 28.2616 12.4591C29.2982 13.4484 30.1205 14.6229 30.6816 15.9155C31.2426 17.2082 31.5313 18.5936 31.5313 19.9928V19.9952ZM20.3509 7.83971C20.1683 7.83972 19.9876 7.80536 19.819 7.7386C19.6503 7.67184 19.4972 7.57401 19.3682 7.45068C19.2392 7.32736 19.137 7.18097 19.0674 7.01989C18.9978 6.85882 18.9621 6.68621 18.9624 6.51196V2.71531C18.9624 2.36381 19.1087 2.0267 19.3691 1.77814C19.6295 1.52959 19.9826 1.38995 20.3509 1.38995C20.7191 1.38995 21.0723 1.52959 21.3327 1.77814C21.5931 2.0267 21.7394 2.36381 21.7394 2.71531V6.51436C21.7397 6.68861 21.704 6.86121 21.6344 7.02228C21.5648 7.18336 21.4625 7.32975 21.3336 7.45307C21.2046 7.5764 21.0514 7.67424 20.8828 7.74099C20.7142 7.80775 20.5334 7.84211 20.3509 7.84211V7.83971ZM20.3509 38.5957C19.9826 38.5957 19.6295 38.4561 19.3691 38.2075C19.1087 37.959 18.9624 37.6218 18.9624 37.2703V33.4713C18.9624 33.1198 19.1087 32.7827 19.3691 32.5341C19.6295 32.2856 19.9826 32.1459 20.3509 32.1459C20.7191 32.1459 21.0723 32.2856 21.3327 32.5341C21.5931 32.7827 21.7394 33.1198 21.7394 33.4713V37.2703C21.7394 37.6218 21.5931 37.959 21.3327 38.2075C21.0723 38.4561 20.7191 38.5957 20.3509 38.5957ZM30.3358 11.7871C30.061 11.7873 29.7923 11.7097 29.5638 11.5641C29.3352 11.4185 29.157 11.2114 29.0518 10.9691C28.9466 10.7268 28.9191 10.4601 28.9728 10.2028C29.0265 9.94555 29.1589 9.70928 29.3534 9.52392L32.1679 6.83732C32.4282 6.5886 32.7812 6.44875 33.1495 6.44852C33.5177 6.4483 33.871 6.58772 34.1316 6.83613C34.3921 7.08453 34.5387 7.42156 34.5389 7.77308C34.5391 8.1246 34.3931 8.46181 34.1328 8.71053L31.3183 11.3971C31.1897 11.5209 31.0366 11.6191 30.868 11.6861C30.6994 11.753 30.5185 11.7873 30.3358 11.7871ZM33.1504 33.5335C32.968 33.5338 32.7873 33.4997 32.6187 33.4332C32.4501 33.3667 32.2969 33.2691 32.1679 33.1459L29.3534 30.4593C29.0928 30.2106 28.9464 29.8733 28.9464 29.5215C28.9464 29.1698 29.0928 28.8325 29.3534 28.5837C29.6139 28.335 29.9674 28.1953 30.3358 28.1953C30.7043 28.1953 31.0577 28.335 31.3183 28.5837L34.1328 31.2727C34.3273 31.4581 34.4597 31.6944 34.5134 31.9516C34.5671 32.2089 34.5396 32.4756 34.4344 32.7179C34.3292 32.9602 34.151 33.1673 33.9225 33.3129C33.6939 33.4585 33.4252 33.5361 33.1504 33.5359V33.5335ZM38.4536 21.3182H34.4712C34.1026 21.3182 33.7491 21.1784 33.4885 20.9296C33.2279 20.6809 33.0815 20.3435 33.0815 19.9916C33.0815 19.6398 33.2279 19.3024 33.4885 19.0536C33.7491 18.8048 34.1026 18.6651 34.4712 18.6651H38.4536C38.8222 18.6651 39.1757 18.8048 39.4363 19.0536C39.6969 19.3024 39.8434 19.6398 39.8434 19.9916C39.8434 20.3435 39.6969 20.6809 39.4363 20.9296C39.1757 21.1784 38.8222 21.3182 38.4536 21.3182Z" fill="#FFF700"/>
</svg>
