<svg width="30" height="30" viewBox="0 0 30 30" fill="none" xmlns="http://www.w3.org/2000/svg">
<path d="M11.3906 26.2612V25.4644C11.4084 25.3997 11.4375 25.3416 11.4497 25.2769C11.7075 23.6006 13.1016 22.2769 14.7366 22.1653C16.5647 22.0369 18.1116 23.0794 18.615 24.7781C18.6797 25.0012 18.7266 25.2356 18.7847 25.4634V26.2603C18.7669 26.3128 18.7378 26.3597 18.7322 26.4187C18.48 27.9656 17.3672 29.1431 15.8438 29.4769C15.7266 29.5003 15.6094 29.5359 15.4922 29.565H14.6953C14.6428 29.5472 14.5894 29.5181 14.5369 29.5125C13.0134 29.2669 11.8538 28.1822 11.5022 26.6766C11.4675 26.5303 11.4262 26.3962 11.3906 26.2612ZM18.7856 3.73874V4.53561C18.7678 4.6003 18.7388 4.65843 18.7331 4.72311C18.4697 6.41061 17.0691 7.72874 15.4163 7.83468C13.5938 7.95186 12.0525 6.89718 11.5547 5.19186C11.49 4.9753 11.4431 4.75218 11.3906 4.53561V3.73874C11.4084 3.68624 11.4375 3.63936 11.4497 3.58686C11.7309 2.06343 12.6159 1.06686 14.0925 0.592488C14.2856 0.5278 14.4909 0.493113 14.6897 0.440613H15.4866C15.5391 0.458425 15.5925 0.487488 15.645 0.493113C17.1741 0.7453 18.3291 1.82343 18.6806 3.32905C18.7163 3.46968 18.75 3.60468 18.7856 3.73874ZM18.7847 14.6016V15.3984C18.7669 15.4631 18.7378 15.5212 18.7256 15.5859C18.4622 17.2678 17.0091 18.6216 15.3684 18.6919C13.5225 18.7734 11.9588 17.6606 11.5191 15.9441C11.4722 15.7622 11.4309 15.5812 11.3906 15.3994V14.6025C11.4084 14.5378 11.4375 14.4797 11.4497 14.415C11.7075 12.7331 13.1663 11.3794 14.8069 11.3034C16.6528 11.2153 18.2166 12.3347 18.6563 14.0512C18.7031 14.2387 18.7444 14.4206 18.7847 14.6025V14.6016Z" fill="black"/>
</svg>
